<mxfile host="app.diagrams.net" modified="2023-09-29T12:49:22.591Z" agent="Mozilla/5.0 (Windows NT 10.0; Win64; x64) AppleWebKit/537.36 (KHTML, like Gecko) Chrome/116.0.0.0 Safari/537.36" etag="bsaqFb81hqHjEs3SaiSf" version="22.0.0" type="github">
  <diagram id="C5RBs43oDa-KdzZeNtuy" name="Page-1">
    <mxGraphModel dx="2074" dy="1142" grid="1" gridSize="10" guides="1" tooltips="1" connect="1" arrows="1" fold="1" page="1" pageScale="1" pageWidth="827" pageHeight="1169" math="0" shadow="0">
      <root>
        <mxCell id="WIyWlLk6GJQsqaUBKTNV-0" />
        <mxCell id="WIyWlLk6GJQsqaUBKTNV-1" parent="WIyWlLk6GJQsqaUBKTNV-0" />
        <mxCell id="WIyWlLk6GJQsqaUBKTNV-2" value="" style="rounded=0;html=1;jettySize=auto;orthogonalLoop=1;fontSize=11;endArrow=block;endFill=0;endSize=8;strokeWidth=1;shadow=0;labelBackgroundColor=none;edgeStyle=orthogonalEdgeStyle;" parent="WIyWlLk6GJQsqaUBKTNV-1" source="WIyWlLk6GJQsqaUBKTNV-3" target="WIyWlLk6GJQsqaUBKTNV-6" edge="1">
          <mxGeometry relative="1" as="geometry" />
        </mxCell>
        <mxCell id="WIyWlLk6GJQsqaUBKTNV-3" value="Jeu commence" style="rounded=1;whiteSpace=wrap;html=1;fontSize=12;glass=0;strokeWidth=1;shadow=0;" parent="WIyWlLk6GJQsqaUBKTNV-1" vertex="1">
          <mxGeometry x="256" y="165" width="120" height="40" as="geometry" />
        </mxCell>
        <mxCell id="WIyWlLk6GJQsqaUBKTNV-5" value="Non" style="edgeStyle=orthogonalEdgeStyle;rounded=0;html=1;jettySize=auto;orthogonalLoop=1;fontSize=11;endArrow=block;endFill=0;endSize=8;strokeWidth=1;shadow=0;labelBackgroundColor=none;" parent="WIyWlLk6GJQsqaUBKTNV-1" source="WIyWlLk6GJQsqaUBKTNV-6" target="WIyWlLk6GJQsqaUBKTNV-7" edge="1">
          <mxGeometry y="10" relative="1" as="geometry">
            <mxPoint as="offset" />
          </mxGeometry>
        </mxCell>
        <mxCell id="15Pv_zeQoZ3KV9qHlIUO-15" style="edgeStyle=orthogonalEdgeStyle;rounded=0;orthogonalLoop=1;jettySize=auto;html=1;" edge="1" parent="WIyWlLk6GJQsqaUBKTNV-1" source="WIyWlLk6GJQsqaUBKTNV-6" target="15Pv_zeQoZ3KV9qHlIUO-10">
          <mxGeometry relative="1" as="geometry" />
        </mxCell>
        <mxCell id="15Pv_zeQoZ3KV9qHlIUO-16" value="Oui" style="edgeLabel;html=1;align=center;verticalAlign=middle;resizable=0;points=[];" vertex="1" connectable="0" parent="15Pv_zeQoZ3KV9qHlIUO-15">
          <mxGeometry x="-0.6091" y="3" relative="1" as="geometry">
            <mxPoint x="7" y="-3" as="offset" />
          </mxGeometry>
        </mxCell>
        <mxCell id="WIyWlLk6GJQsqaUBKTNV-6" value="C&#39;est le tour du joueur?" style="rhombus;whiteSpace=wrap;html=1;shadow=0;fontFamily=Helvetica;fontSize=12;align=center;strokeWidth=1;spacing=6;spacingTop=-4;" parent="WIyWlLk6GJQsqaUBKTNV-1" vertex="1">
          <mxGeometry x="256" y="515" width="120" height="80" as="geometry" />
        </mxCell>
        <mxCell id="15Pv_zeQoZ3KV9qHlIUO-5" style="edgeStyle=orthogonalEdgeStyle;rounded=0;orthogonalLoop=1;jettySize=auto;html=1;exitX=0.5;exitY=1;exitDx=0;exitDy=0;entryX=0.5;entryY=0;entryDx=0;entryDy=0;" edge="1" parent="WIyWlLk6GJQsqaUBKTNV-1" source="WIyWlLk6GJQsqaUBKTNV-7" target="15Pv_zeQoZ3KV9qHlIUO-3">
          <mxGeometry relative="1" as="geometry" />
        </mxCell>
        <mxCell id="WIyWlLk6GJQsqaUBKTNV-7" value="Personnage Tire" style="rounded=1;whiteSpace=wrap;html=1;fontSize=12;glass=0;strokeWidth=1;shadow=0;" parent="WIyWlLk6GJQsqaUBKTNV-1" vertex="1">
          <mxGeometry x="506" y="535" width="120" height="40" as="geometry" />
        </mxCell>
        <mxCell id="15Pv_zeQoZ3KV9qHlIUO-0" value="Nombre aléatoire&lt;br&gt;(1-6)" style="shape=cylinder3;whiteSpace=wrap;html=1;boundedLbl=1;backgroundOutline=1;size=15;" vertex="1" parent="WIyWlLk6GJQsqaUBKTNV-1">
          <mxGeometry x="286" y="235" width="60" height="80" as="geometry" />
        </mxCell>
        <mxCell id="15Pv_zeQoZ3KV9qHlIUO-1" value="Installer 5 personnages dans 6 chaîses" style="rounded=0;whiteSpace=wrap;html=1;" vertex="1" parent="WIyWlLk6GJQsqaUBKTNV-1">
          <mxGeometry x="256" y="335" width="120" height="60" as="geometry" />
        </mxCell>
        <mxCell id="15Pv_zeQoZ3KV9qHlIUO-2" value="Commencer les tours de 1 a 6" style="rounded=0;whiteSpace=wrap;html=1;" vertex="1" parent="WIyWlLk6GJQsqaUBKTNV-1">
          <mxGeometry x="256" y="405" width="120" height="60" as="geometry" />
        </mxCell>
        <mxCell id="15Pv_zeQoZ3KV9qHlIUO-8" style="edgeStyle=orthogonalEdgeStyle;rounded=0;orthogonalLoop=1;jettySize=auto;html=1;exitX=0.5;exitY=1;exitDx=0;exitDy=0;" edge="1" parent="WIyWlLk6GJQsqaUBKTNV-1" source="15Pv_zeQoZ3KV9qHlIUO-3" target="15Pv_zeQoZ3KV9qHlIUO-7">
          <mxGeometry relative="1" as="geometry" />
        </mxCell>
        <mxCell id="15Pv_zeQoZ3KV9qHlIUO-9" value="Oui" style="edgeLabel;html=1;align=center;verticalAlign=middle;resizable=0;points=[];" vertex="1" connectable="0" parent="15Pv_zeQoZ3KV9qHlIUO-8">
          <mxGeometry x="-0.2174" y="3" relative="1" as="geometry">
            <mxPoint x="17" as="offset" />
          </mxGeometry>
        </mxCell>
        <mxCell id="15Pv_zeQoZ3KV9qHlIUO-12" style="edgeStyle=orthogonalEdgeStyle;rounded=0;orthogonalLoop=1;jettySize=auto;html=1;entryX=0.5;entryY=0;entryDx=0;entryDy=0;" edge="1" parent="WIyWlLk6GJQsqaUBKTNV-1" source="15Pv_zeQoZ3KV9qHlIUO-3" target="WIyWlLk6GJQsqaUBKTNV-6">
          <mxGeometry relative="1" as="geometry">
            <mxPoint x="236" y="525" as="targetPoint" />
            <Array as="points">
              <mxPoint x="176" y="680" />
              <mxPoint x="176" y="485" />
              <mxPoint x="316" y="485" />
            </Array>
          </mxGeometry>
        </mxCell>
        <mxCell id="15Pv_zeQoZ3KV9qHlIUO-14" value="Non" style="edgeLabel;html=1;align=center;verticalAlign=middle;resizable=0;points=[];" vertex="1" connectable="0" parent="15Pv_zeQoZ3KV9qHlIUO-12">
          <mxGeometry x="-0.8" y="-2" relative="1" as="geometry">
            <mxPoint x="22" y="-8" as="offset" />
          </mxGeometry>
        </mxCell>
        <mxCell id="15Pv_zeQoZ3KV9qHlIUO-3" value="Nb Aléatoire = Tour ?" style="rhombus;whiteSpace=wrap;html=1;shadow=0;fontFamily=Helvetica;fontSize=12;align=center;strokeWidth=1;spacing=6;spacingTop=-4;" vertex="1" parent="WIyWlLk6GJQsqaUBKTNV-1">
          <mxGeometry x="481" y="640" width="170" height="80" as="geometry" />
        </mxCell>
        <mxCell id="15Pv_zeQoZ3KV9qHlIUO-7" value="Victoire" style="rounded=0;whiteSpace=wrap;html=1;" vertex="1" parent="WIyWlLk6GJQsqaUBKTNV-1">
          <mxGeometry x="506" y="825" width="120" height="60" as="geometry" />
        </mxCell>
        <mxCell id="15Pv_zeQoZ3KV9qHlIUO-17" style="edgeStyle=orthogonalEdgeStyle;rounded=0;orthogonalLoop=1;jettySize=auto;html=1;entryX=0;entryY=0.5;entryDx=0;entryDy=0;" edge="1" parent="WIyWlLk6GJQsqaUBKTNV-1" source="15Pv_zeQoZ3KV9qHlIUO-10" target="15Pv_zeQoZ3KV9qHlIUO-7">
          <mxGeometry relative="1" as="geometry" />
        </mxCell>
        <mxCell id="15Pv_zeQoZ3KV9qHlIUO-18" value="Non" style="edgeLabel;html=1;align=center;verticalAlign=middle;resizable=0;points=[];" vertex="1" connectable="0" parent="15Pv_zeQoZ3KV9qHlIUO-17">
          <mxGeometry x="-0.0667" y="-3" relative="1" as="geometry">
            <mxPoint y="-13" as="offset" />
          </mxGeometry>
        </mxCell>
        <mxCell id="15Pv_zeQoZ3KV9qHlIUO-20" style="edgeStyle=orthogonalEdgeStyle;rounded=0;orthogonalLoop=1;jettySize=auto;html=1;entryX=0.5;entryY=0;entryDx=0;entryDy=0;" edge="1" parent="WIyWlLk6GJQsqaUBKTNV-1" source="15Pv_zeQoZ3KV9qHlIUO-10" target="15Pv_zeQoZ3KV9qHlIUO-19">
          <mxGeometry relative="1" as="geometry" />
        </mxCell>
        <mxCell id="15Pv_zeQoZ3KV9qHlIUO-21" value="Oui" style="edgeLabel;html=1;align=center;verticalAlign=middle;resizable=0;points=[];" vertex="1" connectable="0" parent="15Pv_zeQoZ3KV9qHlIUO-20">
          <mxGeometry x="-0.4" y="4" relative="1" as="geometry">
            <mxPoint x="16" y="5" as="offset" />
          </mxGeometry>
        </mxCell>
        <mxCell id="15Pv_zeQoZ3KV9qHlIUO-10" value="Nb Aléatoire = Tour ?" style="rhombus;whiteSpace=wrap;html=1;shadow=0;fontFamily=Helvetica;fontSize=12;align=center;strokeWidth=1;spacing=6;spacingTop=-4;" vertex="1" parent="WIyWlLk6GJQsqaUBKTNV-1">
          <mxGeometry x="231" y="815" width="170" height="80" as="geometry" />
        </mxCell>
        <mxCell id="15Pv_zeQoZ3KV9qHlIUO-19" value="Défaite" style="rounded=0;whiteSpace=wrap;html=1;" vertex="1" parent="WIyWlLk6GJQsqaUBKTNV-1">
          <mxGeometry x="256" y="945" width="120" height="60" as="geometry" />
        </mxCell>
      </root>
    </mxGraphModel>
  </diagram>
</mxfile>
